<svg width="41" height="41" viewBox="0 0 41 41" fill="none" xmlns="http://www.w3.org/2000/svg">
<path d="M23.1471 15.2055H22.6467C22.6145 15.1167 22.5741 15.0199 22.5337 14.9311L22.8889 14.576C23.4054 14.0594 23.4054 13.2201 22.8889 12.7035L21.0164 10.8311C20.4999 10.3146 19.6605 10.3146 19.144 10.8311L18.7889 11.1862C18.7001 11.1459 18.6032 11.1055 18.5145 11.0732V10.5728C18.5145 9.84645 17.9253 9.24921 17.1908 9.24921H14.5436C13.8172 9.24921 13.22 9.83838 13.22 10.5728V11.0732C13.1312 11.1136 13.0343 11.1459 12.9456 11.1862L12.5904 10.8311C12.09 10.3307 11.2184 10.3307 10.718 10.8311L8.84556 12.7035C8.32903 13.2201 8.32903 14.0594 8.84556 14.576L9.20068 14.9311C9.16032 15.0199 9.11997 15.1167 9.08769 15.2055H8.58729C7.86092 15.2055 7.26367 15.7947 7.26367 16.5291V19.1764C7.27174 19.9108 7.86899 20.5 8.59536 20.5H9.09576C9.12804 20.5888 9.1684 20.6856 9.20875 20.7744L8.85363 21.1295C8.60343 21.3797 8.46623 21.7106 8.46623 22.0657C8.46623 22.4209 8.60343 22.7518 8.85363 23.002L10.7261 24.8744C11.2265 25.3748 12.0981 25.3748 12.5985 24.8744L12.9536 24.5193C13.0424 24.5596 13.1393 24.6 13.228 24.6323V25.1327C13.228 25.8591 13.8172 26.4563 14.5517 26.4563H17.1908C17.9172 26.4563 18.5145 25.8671 18.5145 25.1327V24.6323C18.6032 24.6 18.7001 24.5596 18.7889 24.5193L19.144 24.8744C19.6605 25.3909 20.4999 25.3909 21.0164 24.8744L22.8889 23.002C23.1391 22.7518 23.2763 22.4209 23.2763 22.0657C23.2763 21.7106 23.1391 21.3797 22.8889 21.1295L22.5337 20.7744C22.5741 20.6856 22.6145 20.5888 22.6467 20.5H23.1471C23.8735 20.5 24.4708 19.9108 24.4708 19.1764V16.5291C24.4708 15.8028 23.8816 15.2055 23.1471 15.2055ZM23.1471 19.1764H21.6944L21.5491 19.6364C21.4522 19.9593 21.315 20.2821 21.1456 20.5968L20.9196 21.0246L21.9446 22.0496L20.0721 23.922L19.0471 22.9051L18.6194 23.1311C18.3046 23.3006 17.9737 23.4297 17.6589 23.5346L17.1989 23.6799V25.1327H14.5517V23.6799L14.0916 23.5346C13.7688 23.4378 13.446 23.3006 13.1312 23.1311L12.7034 22.9051L11.6784 23.9301L9.80599 22.0577L10.831 21.0327L10.605 20.6049C10.4355 20.2821 10.2983 19.9592 10.2015 19.6445L10.0562 19.1844H8.60344V16.5291H10.0481L10.1934 16.0691C10.2902 15.7463 10.4275 15.4234 10.5969 15.1087L10.8229 14.6809L9.79792 13.6559L11.6704 11.7835L12.6954 12.8085L13.1231 12.5825C13.4379 12.413 13.7688 12.2839 14.0836 12.1789L14.5436 12.0337V10.5809H17.1908V12.0337L17.6509 12.1789C17.9737 12.2839 18.2965 12.413 18.6113 12.5825L19.0391 12.8085L20.0721 11.7835L21.9446 13.6559L20.9196 14.6809L21.1456 15.1087C21.315 15.4315 21.4522 15.7543 21.5491 16.0691L21.6944 16.5291H23.1471V19.1764Z" fill="#315B91"/>
<path d="M15.8671 13.2201C13.3086 13.2201 11.2344 15.2943 11.2344 17.8528C11.2344 20.4112 13.3167 22.4854 15.8671 22.4854C18.4174 22.4854 20.4997 20.4112 20.4997 17.8528C20.4997 15.2943 18.4255 13.2201 15.8671 13.2201ZM15.8671 21.1699C14.043 21.1699 12.558 19.6848 12.558 17.8608C12.558 16.0368 14.0511 14.5518 15.8671 14.5518C17.6911 14.5518 19.1761 16.0368 19.1761 17.8608C19.1761 19.6848 17.6911 21.1699 15.8671 21.1699Z" fill="#315B91"/>
<path d="M27.7718 4.6246C26.3109 4.6246 25.1245 5.81102 25.1245 7.27185C25.1245 8.73267 26.319 9.91909 27.7718 9.91909C29.2326 9.91909 30.419 8.73267 30.419 7.27185C30.419 5.81102 29.2326 4.6246 27.7718 4.6246ZM27.7718 8.59547C27.0454 8.59547 26.4481 8.0063 26.4481 7.27185C26.4481 6.5374 27.0454 5.94823 27.7718 5.94823C28.4981 5.94823 29.0954 6.5374 29.0954 7.27185C29.0954 8.0063 28.5062 8.59547 27.7718 8.59547Z" fill="#315B91"/>
<path d="M41 34.39V6.61004H33.7281V6.39213C33.7281 5.78681 33.2358 5.28642 32.6224 5.28642H32.5659L32.6063 5.24606C32.8161 5.03622 32.9291 4.76181 32.9291 4.46319C32.9291 4.16457 32.8161 3.89016 32.6063 3.68032L31.3553 2.42933C30.9276 2.00158 30.2254 2.00158 29.7976 2.42933L29.7573 2.46969V2.42126C29.7573 1.81595 29.265 1.31555 28.6516 1.31555H26.8841C26.2787 1.31555 25.7783 1.80787 25.7783 2.42126V2.47776L25.738 2.4374C25.3102 2.00965 24.6081 2.00965 24.1803 2.4374L22.9293 3.68839C22.7195 3.89823 22.6065 4.17264 22.6065 4.47126C22.6065 4.76988 22.7195 5.04429 22.9293 5.25413L22.9697 5.29449H22.9213C22.3159 5.29449 21.8155 5.78681 21.8155 6.4002V6.61811H0V34.39H12.5663V38.3608H7.27185V39.6845H12.5583H28.4256H33.712V38.3608H28.4256V34.39H41ZM23.1472 6.61004H24.0512L24.1965 6.15C24.261 5.94823 24.3417 5.74646 24.4467 5.54469L24.6726 5.11693L24.035 4.47126L24.9713 3.53504L25.6169 4.18071L26.0447 3.95473C26.2465 3.8498 26.4482 3.76102 26.65 3.70453L27.11 3.55925V2.64724H28.4337V3.55118L28.8937 3.69646C29.0955 3.76102 29.2972 3.84173 29.499 3.94665L29.9268 4.17264L30.5724 3.52697L31.5087 4.46319L30.863 5.10886L31.089 5.53661C31.1939 5.73839 31.2827 5.94016 31.3472 6.14193L31.4925 6.60197H32.3965V7.92559H31.4925L31.3472 8.38563C31.2827 8.5874 31.202 8.78917 31.089 8.99095L30.863 9.4187L31.5087 10.0644L30.5724 11.0006L29.9268 10.3549L29.499 10.5809C29.2972 10.6858 29.0955 10.7746 28.8937 10.8311L28.4337 10.9764V11.8884H27.11V10.9764L26.65 10.8311C26.4482 10.7665 26.2465 10.6858 26.0447 10.5809L25.6169 10.3549L24.9713 11.0006L24.035 10.0644L24.6807 9.4187L24.4547 8.99095C24.3498 8.78917 24.261 8.5874 24.2045 8.38563L24.0593 7.92559H23.1472V6.61004ZM1.32362 7.93366H21.8236V8.15158C21.8236 8.75689 22.3159 9.25728 22.9293 9.25728H22.9858L22.9455 9.29764C22.5177 9.72539 22.5177 10.4276 22.9455 10.8553L24.1965 12.1063C24.6242 12.5341 25.3264 12.5341 25.7541 12.1063L25.7945 12.0659V12.1224C25.7945 12.7278 26.2868 13.2281 26.9002 13.2281H28.6677C29.273 13.2281 29.7734 12.7358 29.7734 12.1224V12.0659L29.8138 12.1063C30.2415 12.5341 30.9437 12.5341 31.3715 12.1063L32.6144 10.8553C33.0421 10.4276 33.0421 9.72539 32.6144 9.29764L32.574 9.25728H32.6305C33.2358 9.25728 33.7362 8.76496 33.7362 8.15158V7.93366H39.6844V27.7719H1.32362V7.93366ZM27.1181 38.3528H27.11H13.89V34.3819H27.1181V38.3528ZM12.5663 33.0663H1.32362V29.0955H39.6764V33.0663H28.4337H12.5663Z" fill="#315B91"/>
<path d="M21.162 30.4191H19.8384V31.7427H21.162V30.4191Z" fill="#315B91"/>
<path d="M23.809 30.4191H22.4854V31.7427H23.809V30.4191Z" fill="#315B91"/>
<path d="M18.5145 30.4191H17.1909V31.7427H18.5145V30.4191Z" fill="#315B91"/>
</svg>
