<svg width="41" height="41" viewBox="0 0 41 41" fill="none" xmlns="http://www.w3.org/2000/svg">
<g clip-path="url(#clip0_58_179)">
<path d="M0.129806 3.76104L2.86418 8.54591C2.95641 8.70759 3.11079 8.82457 3.29132 8.86985L5.84235 9.5076L14.5918 18.2571L15.5586 17.2906L6.67217 8.40446C6.58471 8.31673 6.47505 8.25458 6.35498 8.2245L3.90377 7.60952L1.57573 3.53326L3.57167 1.53732L7.64961 3.86761L8.26487 6.31882C8.29468 6.43917 8.35711 6.54912 8.44456 6.63657L17.331 15.523L18.2975 14.5562L9.54798 5.80675L8.91022 3.25713C8.86495 3.07632 8.74797 2.92166 8.58628 2.82914L3.80113 0.0950529C3.53427 -0.0567942 3.19852 -0.0118024 2.98088 0.205001L0.246785 2.93937C0.0268875 3.15562 -0.0209162 3.49193 0.129806 3.76104Z" fill="#315B91"/>
<path d="M28.5489 13.4719L13.5107 28.5104L12.5439 27.5437L27.5824 12.5055L28.5489 13.4719Z" fill="#315B91"/>
<path d="M10.879 29.0425C10.7552 28.8366 10.5331 28.7109 10.293 28.7109H6.19168C5.95182 28.7109 5.72939 28.8366 5.60594 29.0425L3.55517 32.4602C3.42497 32.6767 3.42497 32.9475 3.55517 33.1643L5.60594 36.582C5.72939 36.7875 5.95182 36.9135 6.19168 36.9135H10.293C10.5331 36.9135 10.7552 36.7875 10.879 36.582L12.9295 33.1643C13.0597 32.9475 13.0597 32.6767 12.9295 32.4602L10.879 29.0425ZM9.90631 35.5463H6.57861L4.9381 32.8122L6.57861 30.0778H9.90631L11.5468 32.8122L9.90631 35.5463Z" fill="#315B91"/>
<path d="M32.8484 16.4068C37.363 16.422 41.0355 12.7743 41.0507 8.25963C41.0529 7.57238 40.9685 6.88794 40.7995 6.22178C40.7084 5.85538 40.3375 5.63239 39.9711 5.7235C39.8508 5.75359 39.7411 5.81573 39.6534 5.90318L35.3983 10.1555L32.0222 9.03039L30.8963 5.65517L35.1514 1.39923C35.4183 1.13209 35.418 0.699325 35.1508 0.432468C35.0628 0.344452 34.952 0.282026 34.8308 0.252219C30.4526 -0.856546 26.0049 1.79375 24.8961 6.17173C24.7277 6.83592 24.6436 7.51867 24.6458 8.20395C24.6475 8.74217 24.7029 9.27869 24.812 9.80566L9.84186 24.7755C9.31489 24.6667 8.77837 24.6113 8.24043 24.6094C3.71005 24.6094 0.0375977 28.2818 0.0375977 32.8122C0.0375977 37.3423 3.71005 41.0148 8.24043 41.0148C12.7705 41.0148 16.443 37.3423 16.443 32.8122C16.4413 32.274 16.3856 31.7375 16.2768 31.2105L19.8607 27.6266L21.4281 29.194C21.6952 29.4609 22.1277 29.4609 22.3948 29.194L22.7365 28.8521C23.0362 28.5543 23.5208 28.5543 23.8205 28.8521C24.12 29.1507 24.1205 29.6355 23.8219 29.935C23.8216 29.9353 23.8211 29.9358 23.8205 29.9364L23.4789 30.278C23.212 30.5449 23.212 30.9777 23.4789 31.2445L31.633 39.3987C33.7777 41.5631 37.2708 41.5788 39.4352 39.4341C41.5993 37.2894 41.615 33.7961 39.4703 31.632C39.4588 31.6202 39.447 31.6084 39.4352 31.5966L31.281 23.4427C31.0141 23.1758 30.5814 23.1758 30.3145 23.4427L29.9728 23.7843C29.6728 24.0824 29.1886 24.0824 28.8885 23.7843C28.5894 23.4857 28.5885 23.0009 28.8871 22.7017C28.8877 22.7011 28.8883 22.7009 28.8885 22.7003L29.2305 22.3584C29.4973 22.0915 29.4973 21.6587 29.2305 21.3919L27.6631 19.8245L31.247 16.2406C31.7739 16.3494 32.3104 16.4051 32.8484 16.4068ZM35.5341 39.6479C35.0375 39.647 34.5451 39.5573 34.0803 39.3827L39.4189 34.0438C40.2245 36.1869 39.1405 38.577 36.9975 39.3827C36.5298 39.5584 36.0341 39.6484 35.5341 39.6479ZM27.7902 21.882C27.0332 22.7849 27.1519 24.1308 28.0548 24.8875C28.8483 25.5525 30.0049 25.5519 30.7976 24.8855L38.4687 32.5633C38.5519 32.6469 38.6298 32.7349 38.7052 32.8243L32.8608 38.6687C32.7711 38.5936 32.683 38.5157 32.5995 38.4322L24.9225 30.7547C25.6795 29.8517 25.5608 28.5059 24.6579 27.7492C23.8644 27.0839 22.7075 27.0847 21.9148 27.7509L20.8212 26.6573L26.6963 20.791L27.7902 21.882ZM30.5504 15.007L15.0437 30.5106C14.8736 30.6804 14.8053 30.927 14.8632 31.1602C15.801 34.843 13.5756 38.5889 9.89247 39.5264C6.20962 40.4642 2.46378 38.2388 1.52598 34.5556C0.588465 30.8728 2.81387 27.1269 6.497 26.1891C7.61111 25.9057 8.77837 25.9057 9.89247 26.1891C10.1256 26.2462 10.3716 26.1779 10.542 26.0089L26.0451 10.505C26.2149 10.3352 26.2832 10.0885 26.2248 9.85571C25.2934 6.21588 27.489 2.51024 31.1289 1.57863C31.8167 1.40288 32.5281 1.3354 33.2367 1.37954L29.6309 4.98676C29.4478 5.16954 29.3837 5.44033 29.4656 5.68582L30.8325 9.78738C30.9008 9.99125 31.0611 10.1515 31.2652 10.2193L35.3668 11.5865C35.612 11.6683 35.8828 11.6045 36.0659 11.4217L39.6717 7.8159C39.6798 7.94637 39.684 8.07544 39.684 8.20395C39.7032 11.9599 36.6741 15.0202 32.9181 15.0396C32.3374 15.0424 31.7587 14.971 31.1963 14.827C30.9632 14.7688 30.7166 14.8369 30.5468 15.0067H30.5504V15.007Z" fill="#315B91"/>
<path d="M35.3847 34.3793L34.4179 35.3461L27.5825 28.5107L28.549 27.5439L35.3847 34.3793Z" fill="#315B91"/>
</g>
<defs>
<clipPath id="clip0_58_179">
<rect width="41" height="41" fill="white"/>
</clipPath>
</defs>
</svg>
