<svg width="41" height="41" viewBox="0 0 41 41" fill="none" xmlns="http://www.w3.org/2000/svg">
<path d="M36.6999 39.8335L34.8501 37.9838V14.0671L34.5105 13.7275L31.4334 10.6504V0H4.1001V35.5333H7.51676V38.95H33.8839L35.7336 40.7998C35.8669 40.933 36.0418 41 36.2168 41C36.3917 41 36.5666 40.933 36.6999 40.7998C36.9671 40.5326 36.9671 40.1007 36.6999 39.8335ZM32.5172 13.6667H24.6001V5.74957L31.4334 12.5829L32.5172 13.6667ZM5.46676 34.1667V1.36667H30.0668V9.28377L24.5393 3.75628L24.1997 3.41667H7.51676V34.1667H5.46676ZM8.88343 37.5833V35.5333V4.78333H23.2334V15.0333H33.4834V36.6171L28.3489 31.4825C29.5379 30.0749 30.2588 28.2592 30.2588 26.2762C30.2588 21.8195 26.633 18.1938 22.1763 18.1938C17.7196 18.1938 14.0938 21.8195 14.0938 26.2762C14.0938 30.7329 17.7196 34.3587 22.1763 34.3587C24.1593 34.3587 25.975 33.6378 27.3826 32.4488L32.5172 37.5833H8.88343ZM22.1763 32.992C18.4733 32.992 15.4605 29.9792 15.4605 26.2762C15.4605 22.5732 18.4733 19.5604 22.1763 19.5604C25.8793 19.5604 28.8921 22.5732 28.8921 26.2762C28.8921 29.9792 25.8793 32.992 22.1763 32.992Z" fill="#315B91"/>
<path d="M18.1941 24.6H22.2941C22.672 24.6 22.9774 24.2946 22.9774 23.9167C22.9774 23.5388 22.672 23.2333 22.2941 23.2333H18.1941C17.8162 23.2333 17.5107 23.5388 17.5107 23.9167C17.5107 24.2946 17.8162 24.6 18.1941 24.6Z" fill="#315B91"/>
<path d="M26.3941 27.3333H18.1941C17.8162 27.3333 17.5107 27.6388 17.5107 28.0166C17.5107 28.3945 17.8162 28.7 18.1941 28.7H26.3941C26.772 28.7 27.0774 28.3945 27.0774 28.0166C27.0774 27.6388 26.772 27.3333 26.3941 27.3333Z" fill="#315B91"/>
</svg>
