<svg width="41" height="41" viewBox="0 0 41 41" fill="none" xmlns="http://www.w3.org/2000/svg">
<path d="M29.4688 30.75H23.7031C23.1936 30.7506 22.7051 30.9532 22.3448 31.3135C21.9845 31.6738 21.7818 32.1623 21.7812 32.6719V38.4375H2.5625V7.6875H19.2188V6.40625H2.5625C2.22281 6.40664 1.89715 6.54175 1.65695 6.78195C1.41675 7.02215 1.28164 7.34781 1.28125 7.6875V38.4375C1.28164 38.7772 1.41675 39.1029 1.65695 39.3431C1.89715 39.5832 2.22281 39.7184 2.5625 39.7188H21.8914C22.1438 39.7194 22.3939 39.67 22.6272 39.5734C22.8604 39.4767 23.0722 39.3348 23.2502 39.1557L30.187 32.2189C30.366 32.0408 30.5079 31.829 30.6046 31.5957C30.7012 31.3624 30.7506 31.1123 30.75 30.8598V23.0625H29.4688V30.75ZM23.0625 37.5316V32.6719C23.0627 32.502 23.1302 32.3392 23.2503 32.2191C23.3704 32.099 23.5333 32.0314 23.7031 32.0312H28.5629L23.0625 37.5316Z" fill="#315B91"/>
<path d="M30.1094 6.40625C29.2225 6.40625 28.3554 6.66925 27.618 7.162C26.8805 7.65475 26.3058 8.35512 25.9664 9.17453C25.6269 9.99394 25.5381 10.8956 25.7112 11.7655C25.8842 12.6354 26.3113 13.4344 26.9384 14.0616C27.5656 14.6887 28.3646 15.1158 29.2345 15.2888C30.1044 15.4619 31.0061 15.3731 31.8255 15.0336C32.6449 14.6942 33.3452 14.1195 33.838 13.382C34.3307 12.6446 34.5938 11.7776 34.5938 10.8906C34.5924 9.70172 34.1195 8.56191 33.2788 7.72122C32.4381 6.88054 31.2983 6.40764 30.1094 6.40625ZM30.1094 14.0938C29.4759 14.0938 28.8566 13.9059 28.3298 13.5539C27.8031 13.202 27.3925 12.7017 27.1501 12.1164C26.9076 11.5311 26.8442 10.8871 26.9678 10.2657C27.0914 9.64438 27.3965 9.07364 27.8444 8.62567C28.2924 8.17771 28.8631 7.87264 29.4845 7.74905C30.1058 7.62545 30.7499 7.68889 31.3352 7.93132C31.9205 8.17376 32.4207 8.58431 32.7727 9.11106C33.1246 9.63782 33.3125 10.2571 33.3125 10.8906C33.3115 11.7398 32.9737 12.554 32.3732 13.1545C31.7727 13.755 30.9586 14.0928 30.1094 14.0938Z" fill="#315B91"/>
<path d="M38.4375 8.32812L37.3471 8.31186C37.2594 8.06294 37.1577 7.81918 37.0424 7.58177L37.81 6.81384C37.929 6.69486 38.0234 6.55361 38.0878 6.39815C38.1522 6.24269 38.1854 6.07607 38.1854 5.90779C38.1854 5.73952 38.1522 5.5729 38.0878 5.41744C38.0234 5.26198 37.929 5.12073 37.81 5.00175L35.9982 3.18999C35.7579 2.94993 35.4321 2.81509 35.0924 2.81509C34.7527 2.81509 34.4268 2.94993 34.1865 3.18999L33.4032 3.94729C33.1651 3.8348 32.921 3.7357 32.6719 3.65044V2.5625C32.6715 2.22281 32.5364 1.89715 32.2962 1.65695C32.056 1.41675 31.7303 1.28164 31.3906 1.28125H28.8281C28.4884 1.28164 28.1628 1.41675 27.9226 1.65695C27.6824 1.89715 27.5473 2.22281 27.5469 2.5625L27.5294 3.65356C27.2809 3.74122 27.0375 3.84283 26.8005 3.95792L26.0323 3.18999C25.7919 2.94993 25.4661 2.81509 25.1264 2.81509C24.7867 2.81509 24.4609 2.94993 24.2205 3.18999L22.4087 5.00175C22.2897 5.1207 22.1953 5.26192 22.1309 5.41735C22.0665 5.57279 22.0334 5.73939 22.0334 5.90764C22.0334 6.07589 22.0665 6.24249 22.1309 6.39793C22.1953 6.55336 22.2897 6.69458 22.4087 6.81352L23.167 7.59585C23.0537 7.834 22.9543 8.0785 22.8692 8.32812H21.7812C21.4416 8.32851 21.1159 8.46363 20.8757 8.70382C20.6355 8.94402 20.5004 9.26969 20.5 9.60938V12.1719C20.5004 12.5116 20.6355 12.8372 20.8757 13.0774C21.1159 13.3176 21.4416 13.4527 21.7812 13.4531L22.8717 13.4694C22.9594 13.7183 23.0611 13.9621 23.1764 14.1995L22.4087 14.9674C22.1687 15.2078 22.0338 15.5337 22.0338 15.8735C22.0338 16.2132 22.1687 16.5391 22.4087 16.7795L24.2205 18.5913C24.4609 18.8313 24.7867 18.9662 25.1264 18.9662C25.4661 18.9662 25.7919 18.8313 26.0323 18.5913L26.8155 17.834C27.0536 17.9464 27.2978 18.0456 27.5469 18.1308V19.2188C27.5473 19.5584 27.6824 19.8841 27.9226 20.1243C28.1628 20.3645 28.4884 20.4996 28.8281 20.5H31.3906C31.7303 20.4996 32.056 20.3645 32.2962 20.1243C32.5364 19.8841 32.6715 19.5584 32.6719 19.2188L32.6894 18.1277C32.9379 18.04 33.1812 17.9384 33.4182 17.8233L34.1865 18.5913C34.4268 18.8313 34.7527 18.9662 35.0924 18.9662C35.4321 18.9662 35.7579 18.8313 35.9982 18.5913L37.81 16.7795C38.0501 16.5391 38.1849 16.2132 38.1849 15.8735C38.1849 15.5337 38.0501 15.2078 37.81 14.9674L37.053 14.1838C37.1656 13.9461 37.2646 13.7021 37.3496 13.4531H38.4375C38.7772 13.4527 39.1029 13.3176 39.3431 13.0774C39.5832 12.8372 39.7184 12.5116 39.7188 12.1719V9.60938C39.7184 9.26969 39.5832 8.94402 39.3431 8.70382C39.1029 8.46363 38.7772 8.32851 38.4375 8.32812ZM38.4375 12.1719H37.3496C37.0824 12.1744 36.8226 12.2596 36.6058 12.4156C36.389 12.5716 36.2257 12.7909 36.1384 13.0434C36.0674 13.245 35.9862 13.4428 35.895 13.6361C35.779 13.8761 35.7399 14.146 35.7831 14.409C35.8264 14.672 35.9498 14.9152 36.1365 15.1054L36.9041 15.8736L35.0924 17.6854L34.3241 16.9174C34.1341 16.7311 33.8912 16.6078 33.6285 16.5645C33.3659 16.5212 33.0963 16.5599 32.8564 16.6753C32.6624 16.767 32.4638 16.8487 32.2615 16.9203C32.0092 17.0076 31.7901 17.1708 31.6341 17.3875C31.4782 17.6042 31.3932 17.8638 31.3906 18.1308V19.2188H28.8281V18.1308C28.8256 17.8638 28.7405 17.6042 28.5846 17.3875C28.4287 17.1708 28.2096 17.0076 27.9573 16.9203C27.7552 16.8488 27.5568 16.7672 27.3629 16.6756C27.1862 16.5918 26.993 16.5482 26.7974 16.548C26.63 16.5473 26.4641 16.5795 26.3092 16.6429C26.1543 16.7063 26.0135 16.7996 25.8946 16.9174L25.1264 17.6854L23.3146 15.8733L24.0816 15.106C24.2684 14.9161 24.392 14.6731 24.4355 14.4103C24.4789 14.1474 24.4401 13.8776 24.3244 13.6377C24.2329 13.4435 24.1512 13.2448 24.0797 13.0424C23.9924 12.7901 23.8292 12.5711 23.6125 12.4152C23.3958 12.2593 23.1361 12.1744 22.8692 12.1719H21.7812V9.60938H22.8692C23.1363 9.60681 23.3961 9.52168 23.6129 9.36566C23.8298 9.20964 23.9931 8.99037 24.0804 8.7379C24.1514 8.53574 24.2331 8.33746 24.325 8.14388C24.4404 7.90392 24.479 7.63423 24.4355 7.37153C24.3921 7.10884 24.2687 6.86593 24.0822 6.67589L23.3146 5.90764L25.1264 4.09587L25.8946 4.86381C26.0847 5.05019 26.3276 5.17344 26.5902 5.21677C26.8529 5.2601 27.1225 5.22139 27.3623 5.10592C27.5564 5.01428 27.7549 4.93253 27.9573 4.86099C28.2096 4.77369 28.4287 4.61049 28.5846 4.39377C28.7405 4.17704 28.8256 3.9174 28.8281 3.65044V2.5625H31.3906V3.65044C31.3932 3.9174 31.4782 4.17704 31.6341 4.39377C31.7901 4.61049 32.0092 4.77369 32.2615 4.86099C32.4636 4.93245 32.6619 5.01409 32.8558 5.10561C33.0957 5.2212 33.3654 5.26001 33.6282 5.21674C33.8909 5.17347 34.1339 5.05022 34.3241 4.86381L35.0924 4.09587L36.9041 5.90764L36.1371 6.67526C35.9503 6.8655 35.8268 7.10875 35.7833 7.37181C35.7399 7.63487 35.7787 7.90493 35.8944 8.14513C35.9861 8.33867 36.0678 8.53684 36.139 8.73884C36.2263 8.99111 36.3895 9.21019 36.6063 9.36605C36.823 9.5219 37.0826 9.6069 37.3496 9.60938H38.4375V12.1719Z" fill="#315B91"/>
<path d="M11.5312 9.60938H18.5781V10.8906H11.5312V9.60938Z" fill="#315B91"/>
<path d="M9.60938 12.1719H14.7344V13.4531H9.60938V12.1719Z" fill="#315B91"/>
<path d="M16.0156 12.1719H18.5781V13.4531H16.0156V12.1719Z" fill="#315B91"/>
<path d="M12.8125 17.2969H14.0938V18.5781H12.8125V17.2969Z" fill="#315B91"/>
<path d="M15.375 17.2969H20.5V18.5781H15.375V17.2969Z" fill="#315B91"/>
<path d="M11.5312 19.8594H17.9375V21.1406H11.5312V19.8594Z" fill="#315B91"/>
<path d="M19.2188 19.8594H23.0625V21.1406H19.2188V19.8594Z" fill="#315B91"/>
<path d="M12.8125 24.3438H14.0938V25.625H12.8125V24.3438Z" fill="#315B91"/>
<path d="M15.375 24.3438H21.1406V25.625H15.375V24.3438Z" fill="#315B91"/>
<path d="M11.5312 26.9062H17.9375V28.1875H11.5312V26.9062Z" fill="#315B91"/>
<path d="M19.2188 26.9062H23.7031V28.1875H19.2188V26.9062Z" fill="#315B91"/>
<path d="M12.8125 31.3906H14.0938V32.6719H12.8125V31.3906Z" fill="#315B91"/>
<path d="M15.375 31.3906H19.8594V32.6719H15.375V31.3906Z" fill="#315B91"/>
<path d="M11.5312 33.9531H16.6562V35.2344H11.5312V33.9531Z" fill="#315B91"/>
<path d="M17.9375 33.9531H19.8594V35.2344H17.9375V33.9531Z" fill="#315B91"/>
<path d="M22.4219 24.3438H27.5469V25.625H22.4219V24.3438Z" fill="#315B91"/>
<path d="M24.9844 26.9062H27.5469V28.1875H24.9844V26.9062Z" fill="#315B91"/>
<path d="M10.4802 15.5236L8.93145 16.8142C8.74668 16.712 8.53926 16.6577 8.32812 16.6563H5.76562C5.42594 16.6566 5.10027 16.7918 4.86007 17.032C4.61988 17.2722 4.48476 17.5978 4.48438 17.9375V20.5C4.48476 20.8397 4.61988 21.1654 4.86007 21.4056C5.10027 21.6458 5.42594 21.7809 5.76562 21.7813H8.32812C8.66781 21.7809 8.99348 21.6458 9.23368 21.4056C9.47387 21.1654 9.60899 20.8397 9.60938 20.5V17.9375C9.60938 17.9311 9.60758 17.9253 9.6075 17.9189L11.301 16.5077L10.4802 15.5236ZM8.32812 20.5H5.76562V17.9375H7.58353L6.63647 18.7267L7.45728 19.7108L8.32812 18.9851V20.5Z" fill="#315B91"/>
<path d="M10.4802 22.5704L8.93145 23.8611C8.74668 23.7589 8.53926 23.7046 8.32812 23.7031H5.76562C5.42594 23.7035 5.10027 23.8386 4.86007 24.0788C4.61988 24.319 4.48476 24.6447 4.48438 24.9844V27.5469C4.48476 27.8865 4.61988 28.2122 4.86007 28.4524C5.10027 28.6926 5.42594 28.8277 5.76562 28.8281H8.32812C8.66781 28.8277 8.99348 28.6926 9.23368 28.4524C9.47387 28.2122 9.60899 27.8865 9.60938 27.5469V24.9844C9.60938 24.978 9.60758 24.9721 9.6075 24.9658L11.301 23.5545L10.4802 22.5704ZM8.32812 27.5469H5.76562V24.9844H7.58353L6.63647 25.7736L7.45728 26.7576L8.32812 26.0319V27.5469Z" fill="#315B91"/>
<path d="M10.4802 29.6173L8.93145 30.9079C8.74668 30.8058 8.53926 30.7515 8.32812 30.75H5.76562C5.42594 30.7504 5.10027 30.8855 4.86007 31.1257C4.61988 31.3659 4.48476 31.6915 4.48438 32.0312V34.5937C4.48476 34.9334 4.61988 35.2591 4.86007 35.4993C5.10027 35.7395 5.42594 35.8746 5.76562 35.875H8.32812C8.66781 35.8746 8.99348 35.7395 9.23368 35.4993C9.47387 35.2591 9.60899 34.9334 9.60938 34.5937V32.0312C9.60938 32.0249 9.60758 32.019 9.6075 32.0127L11.301 30.6014L10.4802 29.6173ZM8.32812 34.5937H5.76562V32.0312H7.58353L6.63647 32.8204L7.45728 33.8045L8.32812 33.0788V34.5937Z" fill="#315B91"/>
</svg>
