<svg width="41" height="41" viewBox="0 0 41 41" fill="none" xmlns="http://www.w3.org/2000/svg">
<g clip-path="url(#clip0_58_118)">
<path d="M5.21603 2.50682C4.16814 2.50682 3.31543 3.35953 3.31543 4.40742C3.31543 5.45532 4.16814 6.30772 5.21603 6.30772C6.26393 6.30772 7.11632 5.45501 7.11632 4.40711C7.11632 3.35921 6.26393 2.50682 5.21603 2.50682ZM5.21603 5.09466C4.83691 5.09466 4.52849 4.78623 4.52849 4.40711C4.52849 4.02831 4.83691 3.71988 5.21603 3.71988C5.59484 3.71988 5.90327 4.02831 5.90327 4.40711C5.90327 4.78623 5.59484 5.09466 5.21603 5.09466Z" fill="#315B91"/>
<path d="M10.3108 2.50682C9.26286 2.50682 8.41016 3.35953 8.41016 4.40742C8.41016 5.45532 9.26286 6.30772 10.3108 6.30772C11.3587 6.30772 12.2111 5.45532 12.2111 4.40742C12.2111 3.35953 11.3587 2.50682 10.3108 2.50682ZM10.3108 5.09466C9.93164 5.09466 9.62321 4.78623 9.62321 4.40711C9.62321 4.02831 9.93164 3.71988 10.3108 3.71988C10.6896 3.71988 10.998 4.02831 10.998 4.40711C10.998 4.78623 10.6896 5.09466 10.3108 5.09466Z" fill="#315B91"/>
<path d="M15.4052 2.50682C14.3573 2.50682 13.5049 3.35953 13.5049 4.40742C13.5049 5.45532 14.3573 6.30772 15.4052 6.30772C16.4531 6.30772 17.3055 5.45532 17.3055 4.40742C17.3055 3.35953 16.4531 2.50682 15.4052 2.50682ZM15.4052 5.09466C15.0261 5.09466 14.7179 4.78623 14.7179 4.40711C14.7179 4.02831 15.0261 3.71988 15.4052 3.71988C15.7843 3.71988 16.0927 4.02831 16.0927 4.40711C16.0927 4.78623 15.784 5.09466 15.4052 5.09466Z" fill="#315B91"/>
<path d="M41.0001 0H9.57543e-05V2.22373L0 31.2148H2.22383H6.1364C5.95059 31.4529 5.96686 31.7973 6.18582 32.0162L9.09991 34.9303C8.88158 35.3783 8.69045 35.8397 8.52779 36.3095H4.40721C4.07251 36.3095 3.80099 36.581 3.80099 36.916V40.3935C3.80099 40.7285 4.07251 41 4.40721 41H16.3758C16.7108 41 16.9823 40.7285 16.9823 40.3935C16.9823 38.5429 18.4878 37.0374 20.3384 37.0374C22.1886 37.0374 23.6942 38.5429 23.6942 40.3935C23.6942 40.7285 23.9657 41 24.3007 41H36.2692C36.6042 41 36.8758 40.7285 36.8758 40.3935V36.916C36.8758 36.581 36.6042 36.3095 36.2692 36.3095H32.1487C31.986 35.8397 31.7949 35.3783 31.5765 34.9303L34.4909 32.0162C34.7096 31.7973 34.7259 31.4529 34.54 31.2148H38.7761H40.9998V13.9868C40.9998 13.6518 40.7283 13.3802 40.3936 13.3802C40.0586 13.3802 39.787 13.6518 39.787 13.9868V28.9911C39.787 29.5485 39.3335 30.0018 38.7761 30.0018H33.3342L29.7594 26.427V22.2789C29.7594 21.9439 29.4876 21.6724 29.1529 21.6724H28.0612V17.935L28.9171 17.1449C29.0891 16.9859 29.1545 16.7426 29.085 16.5192L27.6296 11.829C27.5507 11.5754 27.3158 11.4024 27.0502 11.4024H25.4327C25.1672 11.4024 24.9322 11.5754 24.8534 11.829L23.3979 16.5192C23.3285 16.7426 23.3939 16.9859 23.5659 17.1449L24.422 17.935V21.6724H23.3304C22.9953 21.6724 22.7238 21.9439 22.7238 22.2789V23.8558H17.9526V22.9346L20.2818 20.6054C20.3956 20.4916 20.4594 20.3373 20.4594 20.1766V15.203C20.4594 15.0409 20.3944 14.8855 20.2789 14.7716L17.0445 11.5772C16.8703 11.4052 16.6101 11.3548 16.3845 11.449C16.1587 11.5434 16.0117 11.764 16.0117 12.0086V17.4154L14.4348 18.4083L12.858 17.4154V17.0698C12.858 16.7348 12.5864 16.4632 12.2514 16.4632C11.9164 16.4632 11.6449 16.7348 11.6449 17.0698V17.7501C11.6449 17.9588 11.7519 18.1524 11.9283 18.2634L14.1117 19.6382C14.3091 19.7627 14.5606 19.7627 14.7579 19.6382L16.9413 18.2634C17.1177 18.1524 17.2247 17.9588 17.2247 17.7501V13.46L19.2464 15.4563V19.9251L16.9172 22.2542C16.8034 22.3681 16.7396 22.5223 16.7396 22.6834V23.868C16.4627 23.9243 16.2544 24.1689 16.2544 24.4623V28.5829C15.7842 28.7452 15.3232 28.9367 14.8749 29.1547L12.1301 26.4098V22.6834C12.1301 22.5223 12.0662 22.3681 11.9524 22.2542L9.62324 19.9251V15.4563L11.6449 13.46V14.2292C11.6449 14.5642 11.9164 14.8357 12.2514 14.8357C12.5864 14.8357 12.858 14.5642 12.858 14.2292V12.0089C12.858 11.764 12.7109 11.5434 12.4851 11.4493C12.2596 11.3548 11.9993 11.4055 11.8251 11.5772L8.59035 14.7716C8.47493 14.8855 8.41018 15.0409 8.41018 15.203V20.1766C8.41018 20.3373 8.47399 20.4916 8.58785 20.6054L10.917 22.9346V26.427L7.34226 30.0018H2.22383C1.66641 30.0018 1.21315 29.5485 1.21315 28.9911V8.81454H39.787V11.1612C39.787 11.4959 40.0586 11.7674 40.3936 11.7674C40.7286 11.7674 41.0001 11.4959 41.0001 11.1612V2.22373V0ZM25.4399 17.224L24.6701 16.5133L25.88 12.6154H26.6036L27.8132 16.5133L27.0434 17.224C26.9192 17.3388 26.8482 17.5002 26.8482 17.6697V21.6727H25.6354V17.6697C25.6351 17.5002 25.5644 17.3388 25.4399 17.224ZM28.5464 22.8855V26.4101L25.8015 29.155C25.3533 28.937 24.8922 28.7455 24.422 28.5829V24.4626C24.422 24.1692 24.2137 23.9246 23.9369 23.8683V22.8858L28.5464 22.8855ZM15.0432 30.4306C15.6798 30.0915 16.351 29.8131 17.0383 29.6033C17.2932 29.5254 17.4674 29.2898 17.4674 29.023V25.0688H23.209V29.023C23.209 29.2898 23.3835 29.5254 23.6385 29.6033C24.3257 29.8131 24.997 30.0915 25.6335 30.4306C25.8691 30.5561 26.1587 30.5129 26.3477 30.3243L29.1445 27.5275L32.6538 31.0372L33.2044 31.5874L30.4076 34.3842C30.219 34.5728 30.1758 34.8628 30.3012 35.0983C30.6403 35.7346 30.9187 36.4058 31.1286 37.0934C31.2065 37.3483 31.442 37.5225 31.7085 37.5225H35.6627V39.7869H29.4964C29.1829 35.0076 25.1956 31.2151 20.3384 31.2151C19.0396 31.2151 17.7843 31.481 16.6069 32.0053C16.301 32.1417 16.1634 32.5001 16.2998 32.8064C16.4358 33.1123 16.7949 33.2496 17.1005 33.1136C18.1215 32.6587 19.2107 32.4282 20.3384 32.4282C24.5265 32.4282 27.9702 35.677 28.2808 39.7869H24.8672C24.5697 37.5535 22.6522 35.8246 20.3384 35.8246C18.0246 35.8246 16.1071 37.5535 15.8096 39.7869H12.3953C12.5426 37.7953 13.4157 35.9654 14.8909 34.5819C15.1352 34.3529 15.1477 33.9691 14.9184 33.7245C14.6894 33.4805 14.3056 33.468 14.0613 33.6969C12.3653 35.2872 11.3355 37.4797 11.181 39.7869H5.01374V37.5225H8.96791C9.23473 37.5225 9.47027 37.3483 9.54816 37.0934C9.75806 36.4058 10.0365 35.7346 10.3755 35.0983C10.501 34.8628 10.4578 34.5728 10.2692 34.3842L7.47239 31.5874L8.0223 31.0378L11.5323 27.5275L14.3291 30.3243C14.5177 30.5129 14.8077 30.5561 15.0432 30.4306ZM1.21315 7.60148V2.22373C1.21315 1.66631 1.66672 1.21306 2.22383 1.21306H38.7764C39.3338 1.21306 39.787 1.66663 39.787 2.22373V7.60148H1.21315Z" fill="#315B91"/>
</g>
<defs>
<clipPath id="clip0_58_118">
<rect width="41" height="41" fill="white"/>
</clipPath>
</defs>
</svg>
